<svg xmlns="http://www.w3.org/2000/svg" version="1.1" xmlns:xlink="http://www.w3.org/1999/xlink" width="1500" height="1500" viewBox="0 0 1500 1500"><rect width="1500" height="1500" x="0" y="0" id="background" stroke="transparent" fill="#242424"></rect><svg xml:space="preserve" width="1000" height="1000" data-version="2" data-id="lg_k6J27Vqq7pINKlq4nm" viewBox="0 0 571 172" x="250" y="250"><rect width="100%" height="100%" fill="transparent"></rect><rect width="478.81" height="131.15" x="-239.41" y="-65.57" fill="none" stroke="#fff" paint-order="stroke" rx="0" ry="0" transform="translate(276.37 76.02)scale(1.1291)" vector-effect="non-scaling-stroke"></rect><rect width="478.81" height="131.15" x="-239.41" y="-65.57" fill="none" stroke="#fff" paint-order="stroke" rx="0" ry="0" transform="translate(294.63 95.97)scale(1.1291)" vector-effect="non-scaling-stroke"></rect><g transform="translate(285.31 83.17)"><filter id="a" width="140%" height="140%" x="-20%" y="-20%"><feGaussianBlur in="SourceAlpha"></feGaussianBlur><feOffset result="oBlur"></feOffset><feFlood flood-color="#F75CFF" flood-opacity="1"></feFlood><feComposite in2="oBlur" operator="in"></feComposite><feMerge><feMergeNode></feMergeNode><feMergeNode in="SourceGraphic"></feMergeNode></feMerge></filter><g filter="url(#a)"><path fill="#fff" d="M-41.26 30.475v-56.96h-17.62l.44-5.34h40.32l-.45 5.34h-17.08v56.96Z"></path><rect width="40.76" height="62.3" x="-20.38" y="-31.15" fill="none" rx="0" ry="0" transform="translate(-38 -.17)"></rect><path fill="#fff" d="M-17.59-9.225q9.7-4.8 17-5.07 5.79 0 8.95 1.47 3.16 1.47 5.11 4.09 1.96 2.63 1.96 7.35v31.86H9.65v-3.38q-12.2 3.73-15.67 3.73h-.26q-8.01 0-10.95-4.89-1.07-1.78-1.2-3.47-.14-1.69-.14-2.85 0-3.2 2.5-5.74 2.49-2.54 5.96-3.43 5.87-1.51 19.76-2.67V.565q0-9.7-10.15-9.7-7.12 0-15.49 4.19Zm4.45 29.55q0 6.41 8.81 6.41 7.03 0 13.98-3.03v-12.72q-13.89 1.96-17.18 3.02-5.61 1.78-5.61 6.32"></path><rect width="34" height="45.12" x="-17" y="-22.56" fill="none" rx="0" ry="0" transform="translate(-1.07 8.77)"></rect><path fill="#fff" d="M30.12-9.135q6.67-4.89 12.63-5.16 5.43 0 8.37 1.34 2.94 1.33 4.85 3.78 1.91 2.45 1.91 6.9v32.75H52.1V-.765q0-3.29-1.42-5.07-2.85-3.3-8.73-3.3-5.6.27-11.83 3.65v35.96h-5.79v-44.5l5.79-.45Z"></path><rect width="33.55" height="44.95" x="-16.77" y="-22.48" fill="none" rx="0" ry="0" transform="translate(41.6 8.5)"></rect></g></g></svg></svg>